<svg width="64" height="64" viewBox="0 0 64 64" fill="none" xmlns="http://www.w3.org/2000/svg">
<path d="M25.4 27.28C27.0417 27.28 28.6161 26.6279 29.777 25.467C30.9378 24.3062 31.59 22.7317 31.59 21.09C31.3 12.9 19.5 12.9 19.21 21.09C19.21 22.7317 19.8622 24.3062 21.023 25.467C22.1839 26.6279 23.7583 27.28 25.4 27.28ZM25.4 18.9C25.9808 18.9 26.5379 19.1307 26.9486 19.5414C27.3593 19.9521 27.59 20.5092 27.59 21.09C27.59 21.6708 27.3593 22.2279 26.9486 22.6386C26.5379 23.0493 25.9808 23.28 25.4 23.28C24.8192 23.28 24.2621 23.0493 23.8514 22.6386C23.4407 22.2279 23.21 21.6708 23.21 21.09C23.21 20.5092 23.4407 19.9521 23.8514 19.5414C24.2621 19.1307 24.8192 18.9 25.4 18.9Z" fill="white"/>
<path d="M36.31 38.1902C37.9509 38.1875 39.5238 37.5345 40.6841 36.3742C41.8443 35.214 42.4974 33.641 42.5 32.0002C42.21 23.8102 30.41 23.8102 30.12 32.0002C30.12 33.6419 30.7722 35.2163 31.933 36.3772C33.0939 37.538 34.6683 38.1902 36.31 38.1902ZM36.31 29.8102C36.8908 29.8102 37.4479 30.0409 37.8586 30.4516C38.2693 30.8623 38.5 31.4193 38.5 32.0002C38.5 32.581 38.2693 33.138 37.8586 33.5487C37.4479 33.9594 36.8908 34.1902 36.31 34.1902C35.7292 34.1902 35.1721 33.9594 34.7614 33.5487C34.3507 33.138 34.12 32.581 34.12 32.0002C34.12 31.4193 34.3507 30.8623 34.7614 30.4516C35.1721 30.0409 35.7292 29.8102 36.31 29.8102Z" fill="white"/>
<path d="M31.59 42.9102C31.59 41.2685 30.9378 39.6941 29.777 38.5332C28.6161 37.3724 27.0417 36.7202 25.4 36.7202C17.21 37.0102 17.21 48.8102 25.4 49.1002C26.2129 49.1002 27.0178 48.9401 27.7688 48.629C28.5198 48.318 29.2022 47.862 29.777 47.2872C30.3518 46.7124 30.8077 46.03 31.1188 45.279C31.4299 44.528 31.59 43.7231 31.59 42.9102ZM23.21 42.9102C23.21 42.3294 23.4407 41.7724 23.8514 41.3616C24.2621 40.9509 24.8192 40.7202 25.4 40.7202C25.9808 40.7202 26.5379 40.9509 26.9486 41.3616C27.3593 41.7724 27.59 42.3294 27.59 42.9102C27.59 43.491 27.3593 44.0481 26.9486 44.4588C26.5379 44.8695 25.9808 45.1002 25.4 45.1002C24.8192 45.1002 24.2621 44.8695 23.8514 44.4588C23.4407 44.0481 23.21 43.491 23.21 42.9102Z" fill="white"/>
<path d="M14.49 25.8101C12.8491 25.8127 11.2762 26.4657 10.1159 27.626C8.95565 28.7863 8.30264 30.3592 8.3 32.0001C8.59 40.1901 20.4 40.1901 20.69 32.0001C20.6874 30.3575 20.033 28.783 18.8705 27.6225C17.7081 26.4619 16.1326 25.8101 14.49 25.8101ZM14.49 34.1901C13.9092 34.1901 13.3521 33.9593 12.9414 33.5486C12.5307 33.1379 12.3 32.5809 12.3 32.0001C12.3 31.4192 12.5307 30.8622 12.9414 30.4515C13.3521 30.0408 13.9092 29.8101 14.49 29.8101C15.0708 29.8101 15.6279 30.0408 16.0386 30.4515C16.4493 30.8622 16.68 31.4192 16.68 32.0001C16.68 32.5809 16.4493 33.1379 16.0386 33.5486C15.6279 33.9593 15.0708 34.1901 14.49 34.1901Z" fill="white"/>
<path d="M60 51.4001H38.47C57.38 38.5801 48.55 8.7801 25.4 8.6001C19.1939 8.6001 13.2421 11.0654 8.8537 15.4538C4.46535 19.8421 2 25.794 2 32.0001C2 38.2062 4.46535 44.158 8.8537 48.5464C13.2421 52.9347 19.1939 55.4001 25.4 55.4001H60C60.5304 55.4001 61.0391 55.1894 61.4142 54.8143C61.7893 54.4392 62 53.9305 62 53.4001C62 52.8697 61.7893 52.361 61.4142 51.9859C61.0391 51.6108 60.5304 51.4001 60 51.4001ZM6 32.0001C6.00529 26.8565 8.05092 21.9251 11.688 18.2881C15.325 14.651 20.2564 12.6054 25.4 12.6001C51.14 13.6601 51.13 50.3401 25.4 51.4001C20.2564 51.3948 15.325 49.3492 11.688 45.7121C8.05092 42.0751 6.00529 37.1437 6 32.0001Z" fill="white"/>
</svg>
