<svg width="55" height="55" viewBox="0 0 55 55" fill="none" xmlns="http://www.w3.org/2000/svg">
<g clip-path="url(#clip0_29_121)">
<path d="M55 27.5C55 12.3367 42.6633 0 27.5 0C12.3367 0 0 12.3367 0 27.5C0 42.6633 12.3367 55 27.5 55H51.5625V51.5625H40.7838C49.2506 46.8695 55 37.8467 55 27.5ZM3.4375 27.5C3.4375 14.2317 14.2317 3.4375 27.5 3.4375C40.7683 3.4375 51.5625 14.2317 51.5625 27.5C51.5625 40.7683 40.7683 51.5625 27.5 51.5625C14.2317 51.5625 3.4375 40.7683 3.4375 27.5Z" fill="white"/>
<path d="M27.5 20.625C30.3433 20.625 32.6562 18.3121 32.6562 15.4688C32.6562 12.6254 30.3433 10.3125 27.5 10.3125C24.6567 10.3125 22.3438 12.6254 22.3438 15.4688C22.3438 18.3121 24.6567 20.625 27.5 20.625ZM27.5 13.75C28.4483 13.75 29.2188 14.5204 29.2188 15.4688C29.2188 16.4171 28.4483 17.1875 27.5 17.1875C26.5517 17.1875 25.7812 16.4171 25.7812 15.4688C25.7812 14.5204 26.5517 13.75 27.5 13.75Z" fill="white"/>
<path d="M20.9624 25.3751C21.8385 22.6728 20.3548 19.7573 17.6524 18.8778H17.6508C14.9501 18.0016 12.0329 19.4854 11.1534 22.1894C10.2772 24.8934 11.761 27.8072 14.465 28.6867C14.9921 28.8579 15.5258 28.9385 16.0529 28.9385C18.2265 28.9385 20.2541 27.5521 20.9624 25.3751L20.9624 25.3751ZM14.4231 23.2519C14.6581 22.5251 15.3345 22.0635 16.0596 22.0635C16.2358 22.0635 16.4137 22.0904 16.59 22.1474C17.4896 22.4412 17.9848 23.413 17.6927 24.3127C17.4007 25.2157 16.4205 25.7091 15.5275 25.4171C14.6262 25.125 14.131 24.1515 14.4231 23.2519V23.2519Z" fill="white"/>
<path d="M23.4599 33.0607C21.1604 31.3923 17.9294 31.9059 16.2576 34.202C15.4469 35.3165 15.1196 36.6794 15.3362 38.039C15.551 39.4002 16.2828 40.5953 17.3973 41.4043C18.2886 42.0522 19.3376 42.3913 20.4169 42.3913C20.6888 42.3913 20.9624 42.3694 21.2343 42.3258C22.5955 42.111 23.7906 41.3791 24.6013 40.263C26.2697 37.9635 25.7578 34.7324 23.4599 33.0607L23.4599 33.0607ZM21.8201 38.2438C21.5498 38.6147 21.1504 38.8598 20.6972 38.9319C20.2473 38.994 19.7891 38.8933 19.4182 38.6248C19.0472 38.3545 18.8022 37.9551 18.73 37.5019C18.6595 37.0487 18.7686 36.5938 19.0372 36.2229C19.3745 35.7613 19.8982 35.5146 20.4303 35.5146C20.7811 35.5146 21.1353 35.622 21.4391 35.8419C22.2061 36.3991 22.3756 37.4767 21.8201 38.2438L21.8201 38.2438Z" fill="white"/>
<path d="M31.5401 33.0624C29.2423 34.7325 28.7303 37.9635 30.3987 40.2631L30.4004 40.2647C31.2094 41.3792 32.4045 42.111 33.7657 42.3259C34.0376 42.3695 34.3112 42.3914 34.5831 42.3914C35.6624 42.3914 36.7131 42.0523 37.6027 41.4044C38.7172 40.5954 39.449 39.4003 39.6639 38.0391C39.8804 36.6795 39.5531 35.3166 38.7424 34.2021C37.074 31.9026 33.8396 31.3907 31.5401 33.0624L31.5401 33.0624ZM35.5818 38.6248C35.2092 38.8951 34.756 38.9975 34.3028 38.932C33.8497 38.8598 33.4502 38.6148 33.1799 38.2438C32.6244 37.4768 32.7956 36.3992 33.561 35.8436C34.323 35.2847 35.4056 35.4559 35.9628 36.223C36.2314 36.5939 36.3405 37.0488 36.27 37.502C36.1978 37.9551 35.9528 38.3546 35.5818 38.6249L35.5818 38.6248Z" fill="white"/>
<path d="M37.3475 18.8778C34.6452 19.7573 33.1615 22.6728 34.0376 25.3768C34.7459 27.5521 36.7735 28.9385 38.9471 28.9385C39.4741 28.9385 40.0079 28.8579 40.5349 28.6867H40.5366C43.2389 27.8072 44.7227 24.8934 43.8466 22.1877C42.967 19.4854 40.0499 18.0016 37.3475 18.8778L37.3475 18.8778ZM39.4742 25.4171C38.5695 25.7108 37.5993 25.2157 37.3073 24.3143C37.0152 23.413 37.5103 22.4412 38.41 22.1474C38.5862 22.0904 38.7642 22.0635 38.9404 22.0635C39.6655 22.0635 40.3419 22.5251 40.5769 23.2502C40.869 24.1515 40.3738 25.1234 39.4742 25.4171Z" fill="white"/>
<path d="M29.9307 25.0693C31.2731 26.4117 31.2731 28.5883 29.9307 29.9307C28.5883 31.2731 26.4118 31.2731 25.0694 29.9307C23.7269 28.5882 23.7269 26.4117 25.0694 25.0693C26.4118 23.7269 28.5883 23.7269 29.9307 25.0693Z" fill="white"/>
</g>
<defs>
<clipPath id="clip0_29_121">
<rect width="55" height="55" fill="white"/>
</clipPath>
</defs>
</svg>
