<svg width="17" height="17" viewBox="0 0 17 17" fill="none" xmlns="http://www.w3.org/2000/svg">
<path d="M4.66763 5.02289H13.0697L12.0195 9.48003H5.71789M12.0195 10.8515H6.06798L4.31754 3.65146H3.26727" stroke="white" stroke-opacity="0.5" stroke-width="0.934161" stroke-linecap="round" stroke-linejoin="round"/>
<path d="M11.319 13.7663C11.7056 13.7663 12.0191 13.4592 12.0191 13.0804C12.0191 12.7015 11.7056 12.3944 11.319 12.3944C10.9323 12.3944 10.6188 12.7015 10.6188 13.0804C10.6188 13.4592 10.9323 13.7663 11.319 13.7663Z" stroke="white" stroke-opacity="0.5" stroke-width="0.934161" stroke-linecap="round" stroke-linejoin="round"/>
<path d="M6.76854 13.7663C7.15523 13.7663 7.46871 13.4592 7.46871 13.0804C7.46871 12.7015 7.15523 12.3944 6.76854 12.3944C6.38184 12.3944 6.06836 12.7015 6.06836 13.0804C6.06836 13.4592 6.38184 13.7663 6.76854 13.7663Z" stroke="white" stroke-opacity="0.5" stroke-width="0.934161" stroke-linecap="round" stroke-linejoin="round"/>
</svg>
