<svg width="57" height="57" viewBox="0 0 57 57" fill="none" xmlns="http://www.w3.org/2000/svg">
<g clip-path="url(#clip0_94_10638)">
<path d="M33.8625 49.7213C33.6577 49.7295 33.5266 49.7459 33.3956 49.7459C30.5941 49.7459 27.8008 49.7377 24.9993 49.7541C24.6061 49.7541 24.4996 49.6476 24.4996 49.2544C24.5078 42.734 24.5078 36.2053 24.5078 29.6849C24.5078 29.5129 24.5078 29.3409 24.5078 29.1197C22.9842 29.1197 21.5015 29.1197 19.9943 29.1197C19.9943 26.7933 19.9943 24.5079 19.9943 22.1569C20.1499 22.1569 20.2973 22.1569 20.4366 22.1569C21.6653 22.1569 22.8941 22.1487 24.1228 22.1651C24.4341 22.1651 24.516 22.075 24.516 21.7719C24.4996 19.9452 24.4996 18.1103 24.516 16.2836C24.5242 15.0057 24.729 13.7606 25.3187 12.6056C26.1625 10.9755 27.4977 9.91878 29.1851 9.26346C30.5613 8.72282 32.0112 8.52622 33.4693 8.50165C35.8448 8.46888 38.2204 8.48526 40.5959 8.47707C40.8171 8.47707 40.9973 8.46888 40.9973 8.78016C40.9891 11.0328 40.9891 13.2855 40.9891 15.5382C40.9891 15.5627 40.9809 15.5873 40.9482 15.6938C40.8089 15.6938 40.6533 15.6938 40.4976 15.6938C39.0231 15.6938 37.5487 15.6856 36.0742 15.6938C35.2223 15.6938 34.5342 16.0378 34.1 16.7833C33.969 17.0044 33.8871 17.2911 33.8871 17.5533C33.8625 18.9458 33.8871 20.3384 33.8707 21.7309C33.8707 22.0586 33.969 22.1487 34.2885 22.1487C36.3363 22.1323 38.3842 22.1405 40.4321 22.1405C40.5959 22.1405 40.7516 22.1405 41.0301 22.1405C40.7434 24.4833 40.4649 26.7769 40.1782 29.0951C38.0484 29.0951 35.9759 29.0951 33.8625 29.0951C33.8625 35.9842 33.8625 42.8323 33.8625 49.7213Z" fill="white" fill-opacity="0.5"/>
</g>
<defs>
<clipPath id="clip0_94_10638">
<rect width="41.9405" height="41.9405" fill="white" transform="translate(8.60712 8.06592)"/>
</clipPath>
</defs>
</svg>
