<svg width="58" height="57" viewBox="0 0 58 57" fill="none" xmlns="http://www.w3.org/2000/svg">
<g clip-path="url(#clip0_94_10642)">
<path d="M48.5109 29.1162C48.5109 31.9668 48.4535 34.8257 48.5273 37.6763C48.6501 42.7223 45.48 46.6214 41.4416 48.358C39.8197 49.0543 38.1158 49.4229 36.3547 49.4229C30.8418 49.4311 25.3207 49.5049 19.8078 49.3984C15.6547 49.3164 12.2389 47.5798 9.78959 44.1558C8.50352 42.3537 7.88916 40.3058 7.88916 38.0859C7.88916 32.2126 7.88916 26.3474 7.88916 20.4741C7.88916 15.6821 10.2237 12.3318 14.3686 10.1528C16.1708 9.2108 18.1286 8.80942 20.1682 8.80123C25.5173 8.80123 30.8745 8.76846 36.2236 8.81761C40.3767 8.85038 43.8417 10.4395 46.3975 13.7817C47.8228 15.6493 48.5109 17.7955 48.5109 20.1547C48.5109 23.1364 48.5109 26.1263 48.5109 29.1162ZM10.9118 29.1162C10.9118 32.1225 10.9118 35.1206 10.9118 38.1268C10.9118 39.4702 11.2231 40.7317 11.9194 41.8704C13.7461 44.8603 16.5066 46.3184 19.9307 46.3757C25.4272 46.4576 30.9319 46.4085 36.4366 46.3921C37.7882 46.3921 39.0988 46.1136 40.3194 45.532C43.6451 43.9428 45.5046 41.4116 45.4882 37.6108C45.4554 31.7948 45.48 25.9788 45.48 20.1629C45.48 18.5164 45.0131 17.0091 44.0383 15.6821C42.1543 13.1345 39.5494 11.8812 36.4366 11.8485C30.9483 11.7829 25.46 11.8239 19.9716 11.8321C18.8003 11.8321 17.6698 12.0696 16.5722 12.4792C13.5577 13.6015 10.7562 16.4439 10.8873 20.6298C10.9856 23.464 10.9118 26.2901 10.9118 29.1162Z" fill="white" fill-opacity="0.5"/>
<path d="M28.2444 37.8029C22.9609 37.8029 18.7013 33.5925 18.6931 28.3499C18.6849 23.1892 22.9773 18.9624 28.228 18.9624C33.4952 18.9542 37.7712 23.1729 37.7794 28.3745C37.7794 33.5679 33.5116 37.7947 28.2444 37.8029ZM28.2444 34.772C31.8405 34.772 34.7567 31.8968 34.7485 28.3581C34.7403 24.8521 31.8241 21.9851 28.2444 21.9851C24.6484 21.9851 21.7158 24.8439 21.7158 28.3745C21.724 31.9132 24.6484 34.7802 28.2444 34.772Z" fill="white" fill-opacity="0.5"/>
<path d="M38.8859 16.0957C39.9918 16.0957 40.8929 17.0377 40.8929 18.1927C40.8847 19.3477 39.9754 20.2816 38.8695 20.2734C37.7801 20.2652 36.8872 19.3314 36.8872 18.2009C36.879 17.0459 37.7801 16.0957 38.8859 16.0957Z" fill="white" fill-opacity="0.5"/>
</g>
<defs>
<clipPath id="clip0_94_10642">
<rect width="41.9405" height="41.9405" fill="white" transform="translate(7.14294 8.06592)"/>
</clipPath>
</defs>
</svg>
