<svg width="31" height="23" viewBox="0 0 31 23" fill="none" xmlns="http://www.w3.org/2000/svg">
<g clip-path="url(#clip0_92_3048)">
<path d="M27.5064 9.60886C25.9098 10.718 23.6687 12.193 22.6579 12.193C22.4576 12.193 22.3934 12.1345 22.3466 12.0795C21.9339 11.5867 22.0455 9.85872 22.6793 6.94553C22.7419 6.65701 22.5848 6.36692 22.3054 6.25283C22.026 6.13811 21.7015 6.23209 21.5321 6.47598C19.351 9.62551 18.3522 10.2862 17.8995 10.2862C17.2573 10.2862 16.6047 8.4972 15.9569 4.96831C15.9053 4.6867 15.66 4.48147 15.3686 4.46513V4.46167C15.3624 4.46167 15.3566 4.46293 15.3504 4.46293C15.3443 4.46293 15.3374 4.46167 15.3316 4.46167V4.46513C15.0412 4.48147 14.7965 4.6867 14.7439 4.96831C14.0955 8.4972 13.4423 10.2862 12.8007 10.2862C12.3477 10.2862 11.3495 9.6252 9.16874 6.47598C8.99967 6.23209 8.67516 6.13811 8.3951 6.25283C8.11537 6.36692 7.9583 6.65701 8.02126 6.94553C8.65471 9.85872 8.76732 11.5867 8.35356 12.0795C8.3078 12.1348 8.24258 12.193 8.04268 12.193C7.03181 12.193 4.79071 10.7183 3.19345 9.60886C2.94098 9.43317 2.59472 9.46177 2.37567 9.67454C2.1563 9.88638 2.12742 10.2217 2.3085 10.4666C5.96026 14.9899 5.27294 20.1814 5.27294 20.1814C5.25964 20.2534 5.2525 20.3269 5.2525 20.4042C5.2525 21.6796 7.09639 22.1844 8.70241 22.4817C10.472 22.8101 12.8027 22.993 15.279 22.9993V23C15.3027 23 15.3267 23 15.3504 22.9993C15.3741 23 15.3978 23 15.4221 23V22.9993C17.8979 22.9927 20.2289 22.8098 21.9978 22.4817C23.6041 22.1844 25.4484 21.6787 25.4484 20.4042C25.4484 20.3269 25.4412 20.2537 25.4279 20.1814C25.4279 20.1814 24.7409 14.9889 28.392 10.4666C28.5734 10.222 28.5449 9.88638 28.3255 9.67454C28.1052 9.4624 27.7596 9.43348 27.5064 9.60886ZM15.4215 21.2396H15.4166C15.3939 21.2396 15.3722 21.2405 15.3498 21.2405C15.3271 21.2405 15.306 21.2396 15.2833 21.2396H15.2784C11.343 21.2286 8.74136 20.7851 7.59322 20.4045C8.74136 20.0233 11.343 19.5798 15.2784 19.5691H15.2878C15.3082 19.5691 15.3287 19.5691 15.3495 19.5691C15.3702 19.5691 15.3897 19.5691 15.4111 19.5691H15.4208C19.3559 19.5798 21.9572 20.0233 23.1057 20.4045C21.9579 20.7851 19.3566 21.2286 15.4215 21.2396Z" fill="#9D2FD4"/>
<path d="M15.3502 3.71746C16.4101 3.71746 17.2694 2.88528 17.2694 1.85873C17.2694 0.832183 16.4101 0 15.3502 0C14.2903 0 13.431 0.832183 13.431 1.85873C13.431 2.88528 14.2903 3.71746 15.3502 3.71746Z" fill="#9D2FD4"/>
<path d="M7.24948 5.65319C8.1327 5.65319 8.84869 4.95975 8.84869 4.10435C8.84869 3.24895 8.1327 2.55551 7.24948 2.55551C6.36626 2.55551 5.65027 3.24895 5.65027 4.10435C5.65027 4.95975 6.36626 5.65319 7.24948 5.65319Z" fill="#EB28D7"/>
<path d="M23.3183 5.65319C24.2015 5.65319 24.9175 4.95975 24.9175 4.10435C24.9175 3.24895 24.2015 2.55551 23.3183 2.55551C22.4351 2.55551 21.7191 3.24895 21.7191 4.10435C21.7191 4.95975 22.4351 5.65319 23.3183 5.65319Z" fill="#5E28EB"/>
<path d="M1.07786 9.5614C1.67324 9.5614 2.15589 9.09395 2.15589 8.51732C2.15589 7.94069 1.67324 7.47324 1.07786 7.47324C0.482471 7.47324 -0.000183105 7.94069 -0.000183105 8.51732C-0.000183105 9.09395 0.482471 9.5614 1.07786 9.5614Z" fill="#E63554"/>
<path d="M29.5884 9.5614C30.1837 9.5614 30.6664 9.09395 30.6664 8.51732C30.6664 7.94069 30.1837 7.47324 29.5884 7.47324C28.993 7.47324 28.5103 7.94069 28.5103 8.51732C28.5103 9.09395 28.993 9.5614 29.5884 9.5614Z" fill="#263AE0"/>
</g>
<defs>
<clipPath id="clip0_92_3048">
<rect width="30.6667" height="23" fill="white"/>
</clipPath>
</defs>
</svg>
