<svg width="57" height="57" viewBox="0 0 57 57" fill="none" xmlns="http://www.w3.org/2000/svg">
<g clip-path="url(#clip0_94_10648)">
<path d="M6.77951 44.149C11.334 44.5585 15.4379 43.4117 19.1733 40.6102C15.2659 40.2662 12.6528 38.3166 11.1947 34.6632C12.4726 34.8188 13.6686 34.8598 14.9383 34.5158C10.7278 33.2051 8.48334 30.4528 8.18026 26.013C9.44175 26.6028 10.6295 27.0287 12.0303 27.0451C9.53186 25.1692 8.25398 22.7364 8.30313 19.6727C8.3277 18.2638 8.70451 16.9368 9.44994 15.6835C14.0781 21.0981 19.8859 24.0961 27.0371 24.5958C26.9962 24.2846 26.9716 24.0388 26.9388 23.7849C26.349 19.2468 29.298 15.1182 33.8033 14.2581C36.6294 13.7175 39.1278 14.4629 41.2412 16.4125C41.5689 16.7074 41.8474 16.7729 42.257 16.6664C43.9034 16.2487 45.468 15.6425 46.9835 14.8234C46.4019 16.7402 45.2059 18.1819 43.584 19.3942C43.9526 19.3287 44.3294 19.2795 44.698 19.2058C45.083 19.1239 45.468 19.0338 45.853 18.9273C46.2216 18.829 46.5821 18.7143 46.9425 18.5914C47.3111 18.4686 47.6797 18.3293 48.1139 18.2556C47.9009 18.5505 47.6961 18.8618 47.4668 19.1485C46.5165 20.3526 45.4189 21.4093 44.2147 22.3514C44.0919 22.4497 43.9854 22.6626 43.9935 22.8101C44.0591 25.7181 43.6495 28.5523 42.7075 31.3047C40.8562 36.7275 37.6287 41.1181 32.7876 44.2555C30.3956 45.8037 27.7825 46.8194 24.9892 47.4092C22.2205 47.9908 19.4354 48.0973 16.6421 47.7696C13.8406 47.442 11.1784 46.6146 8.67175 45.3204C8.00824 44.9845 7.3693 44.6077 6.72217 44.2473C6.74674 44.2145 6.76313 44.1817 6.77951 44.149Z" fill="white" fill-opacity="0.5"/>
</g>
<defs>
<clipPath id="clip0_94_10648">
<rect width="41.9405" height="41.9405" fill="white" transform="translate(6.45245 8.06592)"/>
</clipPath>
</defs>
</svg>
