<svg width="17" height="16" viewBox="0 0 17 16" fill="none" xmlns="http://www.w3.org/2000/svg">
<path d="M8.16801 7.88574C8.73348 7.88574 9.28625 7.72152 9.75642 7.41385C10.2266 7.10619 10.593 6.66889 10.8094 6.15725C11.0258 5.64562 11.0824 5.08263 10.9721 4.53948C10.8618 3.99634 10.5895 3.49743 10.1897 3.10584C9.78982 2.71425 9.28039 2.44758 8.72579 2.33954C8.17119 2.2315 7.59632 2.28695 7.0739 2.49887C6.55148 2.7108 6.10495 3.06968 5.7908 3.53014C5.47664 3.9906 5.30896 4.53195 5.30896 5.08574C5.30896 5.82834 5.61018 6.54054 6.14636 7.06564C6.68253 7.59074 7.40975 7.88574 8.16801 7.88574ZM8.16801 3.08574C8.57192 3.08574 8.96675 3.20304 9.30259 3.4228C9.63842 3.64256 9.90017 3.95492 10.0547 4.32037C10.2093 4.68582 10.2498 5.08796 10.171 5.47592C10.0922 5.86388 9.89766 6.22025 9.61205 6.49995C9.32645 6.77966 8.96257 6.97014 8.56642 7.04731C8.17028 7.12448 7.75966 7.08487 7.3865 6.9335C7.01334 6.78212 6.6944 6.52578 6.47 6.19688C6.2456 5.86798 6.12583 5.4813 6.12583 5.08574C6.12583 4.5553 6.34099 4.0466 6.72397 3.67152C7.10696 3.29645 7.62639 3.08574 8.16801 3.08574V3.08574Z" fill="white" fill-opacity="0.5"/>
<path d="M8.57688 8.68576H7.76001C6.56845 8.68576 5.42568 9.14933 4.58312 9.97449C3.74056 10.7997 3.26721 11.9188 3.26721 13.0858C3.26721 13.1918 3.31024 13.2936 3.38684 13.3686C3.46344 13.4436 3.56732 13.4858 3.67565 13.4858H12.6612C12.7696 13.4858 12.8735 13.4436 12.9501 13.3686C13.0266 13.2936 13.0697 13.1918 13.0697 13.0858C13.0697 11.9188 12.5963 10.7997 11.7538 9.97449C10.9112 9.14933 9.76845 8.68576 8.57688 8.68576ZM4.10859 12.6858C4.20902 11.806 4.63691 10.9934 5.31049 10.403C5.98407 9.81274 6.85612 9.48618 7.76001 9.48576H8.57688C9.48078 9.48618 10.3528 9.81274 11.0264 10.403C11.7 10.9934 12.1279 11.806 12.2283 12.6858H4.10859Z" fill="white" fill-opacity="0.5"/>
</svg>
